<svg aria-hidden="true" style="position: absolute; width: 0; height: 0; overflow: hidden;" version="1.1" xmlns="http://www.w3.org/2000/svg" xmlns:xlink="http://www.w3.org/1999/xlink">
<defs>
<symbol id="icon-globe" viewBox="0 0 32 32">
<path d="M22.658 10.988h5.172c0.693 1.541 1.107 3.229 1.178 5.012h-5.934c-0.025-1.884-0.181-3.544-0.416-5.012zM20.398 3.896c2.967 1.153 5.402 3.335 6.928 6.090h-4.836c-0.549-2.805-1.383-4.799-2.092-6.090zM16.068 9.986v-6.996c1.066 0.047 2.102 0.216 3.092 0.493 0.75 1.263 1.719 3.372 2.33 6.503h-5.422zM9.489 22.014c-0.234-1.469-0.396-3.119-0.421-5.012h5.998v5.012h-5.577zM9.479 10.988h5.587v5.012h-6.004c0.025-1.886 0.183-3.543 0.417-5.012zM11.988 3.461c0.987-0.266 2.015-0.435 3.078-0.469v6.994h-5.422c0.615-3.148 1.591-5.265 2.344-6.525zM3.661 9.986c1.551-2.8 4.062-4.993 7.096-6.131-0.715 1.29-1.559 3.295-2.114 6.131h-4.982zM8.060 16h-6.060c0.066-1.781 0.467-3.474 1.158-5.012h5.316c-0.233 1.469-0.39 3.128-0.414 5.012zM8.487 22.014h-5.29c-0.694-1.543-1.139-3.224-1.204-5.012h6.071c0.024 1.893 0.188 3.541 0.423 5.012zM8.651 23.016c0.559 2.864 1.416 4.867 2.134 6.142-3.045-1.133-5.557-3.335-7.11-6.142h4.976zM15.066 23.016v6.994c-1.052-0.033-2.067-0.199-3.045-0.46-0.755-1.236-1.736-3.363-2.356-6.534h5.401zM21.471 23.016c-0.617 3.152-1.592 5.271-2.344 6.512-0.979 0.271-2.006 0.418-3.059 0.465v-6.977h5.403zM16.068 17.002h5.998c-0.023 1.893-0.188 3.542-0.422 5.012h-5.576v-5.012zM22.072 16h-6.004v-5.012h5.586c0.235 1.469 0.393 3.126 0.418 5.012zM23.070 17.002h5.926c-0.066 1.787-0.506 3.468-1.197 5.012h-5.152c0.234-1.471 0.398-3.119 0.423-5.012zM27.318 23.016c-1.521 2.766-3.967 4.949-6.947 6.1 0.715-1.276 1.561-3.266 2.113-6.1h4.834z"></path>
</symbol>
<symbol id="icon-globe1" viewBox="0 0 32 32">
<path d="M15.5 2c-8.008 0-14.5 6.492-14.5 14.5s6.492 14.5 14.5 14.5 14.5-6.492 14.5-14.5-6.492-14.5-14.5-14.5zM10.752 3.854c-0.714 1.289-1.559 3.295-2.113 6.131h-4.983c1.551-2.799 4.062-4.993 7.096-6.131zM3.154 10.987h5.316c-0.234 1.468-0.391 3.128-0.415 5.012h-6.060c0.067-1.781 0.468-3.474 1.159-5.012zM1.988 17.001h6.072c0.023 1.893 0.188 3.541 0.422 5.012h-5.29c-0.694-1.543-1.138-3.224-1.204-5.012zM3.67 23.015h4.977c0.559 2.864 1.416 4.867 2.134 6.142-3.046-1.134-5.557-3.336-7.111-6.142zM15.062 30.009c-1.052-0.033-2.067-0.199-3.045-0.46-0.755-1.236-1.736-3.363-2.356-6.534h5.401v6.994zM15.062 22.013h-5.578c-0.234-1.469-0.396-3.119-0.421-5.012h5.998v5.012zM15.062 15.999h-6.004c0.025-1.886 0.183-3.543 0.417-5.012h5.587v5.012zM15.062 9.985h-5.422c0.615-3.148 1.591-5.266 2.344-6.525 0.987-0.266 2.015-0.435 3.078-0.47v6.995zM29.003 15.999h-5.933c-0.025-1.884-0.182-3.544-0.416-5.012h5.172c0.693 1.541 1.108 3.23 1.177 5.012zM27.322 9.985h-4.837c-0.549-2.806-1.382-4.8-2.091-6.090 2.967 1.154 5.402 3.335 6.928 6.090zM16.063 2.989c1.067 0.047 2.102 0.216 3.092 0.493 0.751 1.263 1.72 3.372 2.331 6.503h-5.423v-6.996zM16.063 10.987h5.587c0.234 1.469 0.392 3.126 0.417 5.012h-6.004v-5.012zM16.063 17.001h5.998c-0.023 1.893-0.187 3.543-0.421 5.012h-5.577v-5.012zM16.063 29.991v-6.977h5.402c-0.617 3.152-1.591 5.271-2.343 6.512-0.978 0.272-2.005 0.418-3.059 0.465zM20.367 29.114c0.714-1.276 1.56-3.266 2.112-6.1h4.835c-1.522 2.766-3.967 4.95-6.947 6.1zM27.795 22.013h-5.152c0.234-1.471 0.398-3.119 0.423-5.012h5.927c-0.067 1.787-0.508 3.468-1.198 5.012z"></path>
</symbol>
</defs>
</svg>
